<svg width="180" height="36" viewBox="0 0 180 36" fill="none" xmlns="http://www.w3.org/2000/svg">
<g clip-path="url(#clip0_179_2075)">
<path d="M18.8339 2.86798C18.3924 3.00528 17.9755 3.32835 17.7139 3.71602L17.5013 4.02293L17.9101 3.90986C18.278 3.80487 18.3843 3.80487 18.883 3.91794C19.1937 3.98255 19.7987 4.18447 20.2238 4.37023C21.1722 4.76598 21.72 4.88713 22.2841 4.83059C22.93 4.76598 23.4123 4.42676 23.5759 3.91794C23.6249 3.76448 23.5922 3.75641 23.0363 3.75641C22.4231 3.75641 22.3004 3.7241 20.837 3.12643C20.0194 2.78722 19.3326 2.69837 18.8339 2.86798Z" fill="white"/>
<path d="M16.7573 5.79977C16.7573 5.85631 16.5038 7.89161 16.3567 9.06271L16.2994 9.50693L16.7982 9.40193C17.068 9.3454 17.6239 9.23232 18.0245 9.15156L18.7603 9.01426L18.5641 7.37471L18.3597 5.74323H17.5585C17.117 5.74323 16.7573 5.76746 16.7573 5.79977Z" fill="white"/>
<path d="M10.7481 9.39387C10.7317 9.49887 10.5274 10.8719 10.2984 12.4468C10.0777 14.0218 9.87329 15.4029 9.84059 15.5079C9.79971 15.6775 9.82424 15.6936 10.0286 15.6613C12.6122 15.2009 13.1599 15.0717 13.1599 14.9263C13.1599 14.7729 12.5222 10.3065 12.3832 9.47464L12.3342 9.21618H11.5657C10.8299 9.21618 10.789 9.22426 10.7481 9.39387Z" fill="white"/>
<path d="M18.8421 10.7588C18.5723 10.8476 17.6157 11.1384 16.7082 11.413L15.0731 11.9057L15.0894 14.9021C15.0976 16.5497 15.1139 19.0615 15.1139 20.4749L15.1221 23.0514L16.1686 22.9948C16.7409 22.9625 17.5421 22.9221 17.9427 22.906C18.9157 22.8575 19.3571 22.7929 19.4226 22.696C19.4471 22.6556 19.4798 21.0564 19.4961 19.1423C19.5043 17.2281 19.537 15.6532 19.5615 15.629C19.5779 15.6047 20.5835 15.2897 21.7935 14.9263L23.9928 14.2559L24.0173 13.0687L24.0419 11.8895L23.6903 11.7926C23.4941 11.7441 23.1752 11.6472 22.9872 11.5826C22.791 11.518 22.5784 11.4857 22.513 11.5099C22.4476 11.5341 22.4067 11.5261 22.4312 11.4937C22.4803 11.413 19.7823 10.5892 19.5207 10.5972C19.4144 10.6053 19.1119 10.678 18.8421 10.7588Z" fill="white"/>
<path d="M32.5773 13.101V15.1767L32.3566 15.209C32.234 15.2333 32.144 15.2252 32.1686 15.201C32.2258 15.1525 30.656 14.6437 30.2391 14.5791C29.9611 14.5306 28.7102 14.8698 26.0367 15.7098C25.7261 15.8148 24.5733 16.1621 23.4859 16.4932L21.4992 17.0909V19.9015V22.7122L21.9325 22.6718C22.1614 22.6476 22.8155 22.6072 23.3796 22.583C23.9438 22.5587 24.6223 22.5184 24.8921 22.4941C25.1619 22.478 27.0015 22.3649 28.98 22.2599C30.9585 22.1549 33.2478 22.0176 34.0735 21.9611L35.5615 21.8641V16.8647V11.8653L35.3571 11.8976C35.2508 11.9219 35.1691 11.9138 35.1854 11.8895C35.2099 11.8572 34.6295 11.6553 33.9018 11.4292L32.5773 11.0254V13.101Z" fill="white"/>
<path d="M10.8135 17.4705L8.66327 18.1328V20.79V23.4552L9.21922 23.4068C9.52172 23.3825 10.511 23.3099 11.4267 23.2614L13.0782 23.1564V19.9823C13.0782 18.2377 13.0536 16.8082 13.0209 16.8163C12.9801 16.8163 11.9908 17.1151 10.8135 17.4705Z" fill="white"/>
<path d="M37.1149 23.8833C36.9105 23.8994 34.5804 23.9479 31.9233 23.9963C29.2743 24.0448 26.5518 24.1013 25.8732 24.1175C25.2028 24.1417 20.8615 24.2386 16.2258 24.3275C6.48035 24.5132 4.96784 24.5617 4.92696 24.6909C4.91061 24.7394 4.95966 24.804 5.04142 24.8282C5.12318 24.8525 5.59737 25.0544 6.09609 25.2805C10.3557 27.1866 17.7384 28.3173 25.955 28.3173C26.887 28.3173 34.981 28.1719 35.1772 28.1477C35.2508 28.1396 35.7577 28.1316 36.2973 28.1235L37.2784 28.1154V27.7277C37.2784 27.1866 37.5645 26.4112 37.9815 25.8136C38.2513 25.4178 38.3085 25.2805 38.2349 25.1998C38.1532 25.1109 38.1614 25.1028 38.2513 25.1836C38.3494 25.2644 38.4966 25.1594 39.0689 24.6263C39.4531 24.2709 39.7883 23.9398 39.7965 23.9075C39.821 23.8429 38.0387 23.8267 37.1149 23.8833Z" fill="white"/>
<path d="M54.497 23.643H48.4605L47.4928 26.5H43.3686L49.2208 10.3259H53.7827L59.6349 26.5H55.4646L54.497 23.643ZM53.4832 20.6018L51.4787 14.6805L49.4973 20.6018H53.4832ZM65.2867 10.3259V20.0027C65.2867 20.9704 65.5248 21.7154 66.0009 22.2376C66.4771 22.7598 67.176 23.021 68.0976 23.021C69.0192 23.021 69.7257 22.7598 70.2173 22.2376C70.7088 21.7154 70.9545 20.9704 70.9545 20.0027V10.3259H74.8944V19.9797C74.8944 21.4235 74.5872 22.6446 73.9728 23.643C73.3584 24.6414 72.5289 25.3941 71.4845 25.901C70.4553 26.4078 69.3033 26.6613 68.0285 26.6613C66.7536 26.6613 65.6093 26.4155 64.5955 25.924C63.5971 25.4171 62.8061 24.6645 62.2224 23.6661C61.6387 22.6523 61.3469 21.4235 61.3469 19.9797V10.3259H65.2867ZM88.3976 15.4408C88.1058 14.9032 87.6834 14.4962 87.1304 14.2197C86.5928 13.9278 85.9554 13.7819 85.2181 13.7819C83.9432 13.7819 82.9218 14.2043 82.1538 15.0491C81.3858 15.8786 81.0018 16.9922 81.0018 18.3899C81.0018 19.8798 81.4011 21.0472 82.1999 21.892C83.0139 22.7214 84.1275 23.1362 85.5407 23.1362C86.5083 23.1362 87.3224 22.8904 87.9829 22.3989C88.6587 21.9074 89.1503 21.2008 89.4575 20.2792H84.4578V17.3762H93.0287V21.0395C92.7368 22.0226 92.2376 22.9365 91.5311 23.7813C90.8399 24.6261 89.9567 25.3096 88.8815 25.8318C87.8063 26.3541 86.5928 26.6152 85.2411 26.6152C83.6437 26.6152 82.2152 26.2696 80.9557 25.5784C79.7115 24.8718 78.7362 23.8965 78.0296 22.6523C77.3384 21.4082 76.9928 19.9874 76.9928 18.3899C76.9928 16.7925 77.3384 15.3717 78.0296 14.1275C78.7362 12.868 79.7115 11.8926 80.9557 11.2014C82.1999 10.4949 83.6207 10.1416 85.2181 10.1416C87.1535 10.1416 88.7816 10.6101 90.1026 11.547C91.4389 12.484 92.3221 13.7819 92.7522 15.4408H88.3976ZM99.0817 10.3259V20.0027C99.0817 20.9704 99.3198 21.7154 99.7959 22.2376C100.272 22.7598 100.971 23.021 101.893 23.021C102.814 23.021 103.521 22.7598 104.012 22.2376C104.504 21.7154 104.75 20.9704 104.75 20.0027V10.3259H108.689V19.9797C108.689 21.4235 108.382 22.6446 107.768 23.643C107.153 24.6414 106.324 25.3941 105.279 25.901C104.25 26.4078 103.098 26.6613 101.823 26.6613C100.549 26.6613 99.4043 26.4155 98.3905 25.924C97.3921 25.4171 96.6011 24.6645 96.0174 23.6661C95.4337 22.6523 95.1419 21.4235 95.1419 19.9797V10.3259H99.0817ZM119.704 26.5L116.34 20.3944H115.396V26.5H111.456V10.3259H118.068C119.343 10.3259 120.426 10.5486 121.317 10.9941C122.223 11.4395 122.899 12.0539 123.345 12.8373C123.79 13.6053 124.013 14.4654 124.013 15.4178C124.013 16.493 123.706 17.453 123.091 18.2978C122.492 19.1426 121.601 19.7416 120.419 20.0949L124.151 26.5H119.704ZM115.396 17.6066H117.838C118.56 17.6066 119.098 17.4299 119.451 17.0766C119.82 16.7234 120.004 16.2242 120.004 15.579C120.004 14.9646 119.82 14.4808 119.451 14.1275C119.098 13.7742 118.56 13.5976 117.838 13.5976H115.396V17.6066Z" fill="white"/>
</g>
<defs>
<clipPath id="clip0_179_2075">
<rect width="179.357" height="36" fill="white"/>
</clipPath>
</defs>
</svg>
