<svg width="260" height="227" viewBox="0 0 260 227" fill="none" xmlns="http://www.w3.org/2000/svg">
<g clip-path="url(#clip0_109_1092)">
<path d="M121.677 223.157C121.77 223.161 121.862 223.137 121.94 223.087C122.019 223.037 122.08 222.965 122.116 222.879C122.152 222.793 122.16 222.698 122.141 222.607C122.121 222.516 122.074 222.434 122.005 222.371L121.974 222.247L121.987 222.217C122.08 221.996 122.237 221.808 122.437 221.675C122.637 221.543 122.872 221.473 123.111 221.474C123.351 221.475 123.585 221.547 123.784 221.68C123.983 221.814 124.138 222.004 124.23 222.226C124.597 223.111 125.064 223.998 125.179 224.934C125.23 225.348 125.209 225.767 125.116 226.174C125.978 224.29 126.426 222.243 126.429 220.171C126.429 219.652 126.4 219.132 126.342 218.615C126.294 218.192 126.228 217.771 126.144 217.354C125.682 215.088 124.69 212.965 123.25 211.158C122.553 210.777 121.989 210.191 121.635 209.479C121.506 209.223 121.415 208.95 121.365 208.668C121.518 208.264 121.598 207.837 121.602 207.405C121.712 207.239 121.908 207.156 122.028 206.993C122.623 206.185 123.443 206.326 123.871 207.425C124.786 207.887 124.794 208.654 124.233 209.391C123.876 209.861 123.827 210.495 123.514 210.998C123.546 211.039 123.58 211.079 123.612 211.12C124.201 211.879 124.715 212.694 125.145 213.553C125.04 212.591 125.165 211.617 125.509 210.712C125.858 209.869 126.512 209.159 127.088 208.43C127.241 208.234 127.447 208.088 127.683 208.01C127.918 207.932 128.171 207.925 128.41 207.991C128.649 208.057 128.863 208.193 129.025 208.381C129.187 208.569 129.29 208.8 129.32 209.047L129.324 209.079C129.238 209.127 129.155 209.178 129.073 209.233C128.97 209.302 128.89 209.4 128.844 209.515C128.798 209.63 128.787 209.756 128.814 209.878C128.841 209.999 128.904 210.109 128.994 210.194C129.084 210.278 129.198 210.334 129.32 210.353L129.333 210.355C129.302 210.663 129.248 210.97 129.172 211.27C129.91 214.132 128.315 215.175 126.038 215.222C125.988 215.248 125.939 215.273 125.888 215.298C126.321 216.526 126.592 217.804 126.695 219.102C126.754 219.868 126.75 220.637 126.685 221.402L126.689 221.375C126.854 220.524 127.307 219.757 127.972 219.202C128.959 218.389 130.353 218.09 131.418 217.437C131.531 217.365 131.663 217.326 131.797 217.325C131.932 217.325 132.063 217.363 132.177 217.436C132.291 217.508 132.381 217.611 132.438 217.733C132.495 217.855 132.516 217.991 132.498 218.125L132.494 218.153C132.335 218.218 132.18 218.292 132.031 218.376C131.945 218.425 131.862 218.476 131.78 218.53C131.677 218.599 131.597 218.698 131.551 218.813C131.505 218.928 131.494 219.054 131.521 219.175C131.548 219.296 131.611 219.406 131.701 219.491C131.791 219.576 131.905 219.631 132.027 219.65L132.04 219.652L132.066 219.656C131.794 220.305 131.414 220.902 130.94 221.421C130.478 223.92 128.494 224.157 126.372 223.429H126.371C126.138 224.443 125.8 225.43 125.364 226.374H121.767C121.754 226.334 121.743 226.292 121.731 226.252C122.064 226.273 122.398 226.253 122.726 226.193C122.46 225.865 122.193 225.534 121.926 225.206C121.92 225.2 121.914 225.194 121.909 225.187C121.774 225.019 121.637 224.853 121.502 224.685C121.495 224.17 121.554 223.656 121.677 223.157Z" fill="#F2F2F2"/>
<path d="M32.0677 223.157C31.9749 223.161 31.8831 223.137 31.8046 223.087C31.7261 223.037 31.6648 222.965 31.629 222.879C31.5932 222.793 31.5846 222.698 31.6043 222.607C31.6241 222.516 31.6712 222.434 31.7394 222.371L31.7705 222.247L31.7581 222.217C31.6647 221.996 31.5081 221.808 31.308 221.675C31.1079 221.543 30.8733 221.473 30.6336 221.474C30.3939 221.475 30.1598 221.547 29.9607 221.68C29.7616 221.814 29.6064 222.004 29.5146 222.226C29.1476 223.111 28.6804 223.998 28.5654 224.934C28.5147 225.348 28.5361 225.767 28.6286 226.174C27.7667 224.29 27.3192 222.243 27.3163 220.171C27.3161 219.652 27.345 219.132 27.4027 218.615C27.4504 218.192 27.5166 217.771 27.6012 217.354C28.0631 215.088 29.0549 212.965 30.4951 211.158C31.1922 210.777 31.7559 210.191 32.1103 209.479C32.2387 209.223 32.3295 208.95 32.3798 208.668C32.227 208.264 32.1467 207.837 32.1426 207.405C32.033 207.239 31.8369 207.156 31.7172 206.993C31.122 206.185 30.3019 206.326 29.8738 207.425C28.9593 207.887 28.9504 208.654 29.5116 209.391C29.8686 209.861 29.9176 210.495 30.2309 210.998C30.1987 211.039 30.1651 211.079 30.1329 211.12C29.5438 211.879 29.0304 212.694 28.5999 213.553C28.7046 212.591 28.5797 211.617 28.2354 210.712C27.8865 209.869 27.2325 209.159 26.6566 208.43C26.5043 208.234 26.2975 208.088 26.0622 208.01C25.827 207.932 25.5739 207.926 25.335 207.991C25.0961 208.057 24.8821 208.193 24.7201 208.381C24.558 208.569 24.4552 208.8 24.4245 209.047L24.4211 209.079C24.5066 209.127 24.5903 209.178 24.6723 209.233C24.7752 209.302 24.8549 209.4 24.901 209.515C24.9472 209.63 24.9575 209.756 24.9307 209.878C24.904 209.999 24.8413 210.109 24.751 210.194C24.6607 210.278 24.5469 210.334 24.4246 210.353L24.4121 210.355C24.4425 210.663 24.4964 210.97 24.5732 211.27C23.8344 214.132 25.4294 215.175 27.7069 215.222C27.7572 215.248 27.8062 215.273 27.8564 215.298C27.424 216.526 27.1527 217.804 27.0495 219.102C26.991 219.868 26.9945 220.637 27.0598 221.402L27.0559 221.375C26.8909 220.524 26.4379 219.757 25.7733 219.202C24.7862 218.389 23.3917 218.09 22.3269 217.437C22.2137 217.365 22.0821 217.326 21.9477 217.325C21.8132 217.325 21.6814 217.363 21.5679 217.436C21.4544 217.508 21.3638 217.611 21.307 217.733C21.2501 217.855 21.2293 217.991 21.2469 218.125L21.2513 218.153C21.41 218.218 21.5646 218.292 21.7141 218.376C21.7996 218.425 21.8833 218.476 21.9653 218.53C22.0682 218.599 22.1479 218.698 22.194 218.813C22.2402 218.928 22.2505 219.054 22.2237 219.175C22.197 219.296 22.1343 219.406 22.044 219.491C21.9537 219.576 21.8399 219.631 21.7176 219.65L21.705 219.652L21.6792 219.656C21.9505 220.305 22.3311 220.902 22.8046 221.421C23.2665 223.92 25.2507 224.157 27.373 223.429H27.3743C27.6072 224.443 27.9446 225.43 28.3811 226.374H31.9776C31.9905 226.334 32.0021 226.292 32.0137 226.252C31.6808 226.273 31.3466 226.253 31.0185 226.193C31.2854 225.865 31.5522 225.534 31.819 225.206C31.825 225.2 31.8306 225.194 31.8358 225.187C31.9711 225.019 32.1078 224.853 32.2431 224.685C32.2504 224.17 32.1913 223.656 32.0677 223.157Z" fill="#F2F2F2"/>
<path d="M86.4229 29.5668C87.1505 28.0992 88.3135 26.8807 89.0249 25.4052C89.7363 23.9296 89.8746 21.9547 88.6895 20.8253C87.6831 19.8663 86.1069 19.8529 84.9035 19.1583C81.8375 17.3886 81.8411 11.7677 78.336 11.2821C76.6316 11.0459 75.0894 12.3264 74.0592 13.707C73.029 15.0876 72.2082 16.6986 70.7795 17.6591C69.1622 18.7464 67.0712 18.7937 65.2753 19.5489C61.8319 20.997 60.0266 24.7204 58.5172 28.1423C57.5448 30.3466 56.5501 32.7243 57.0013 35.0915C56.0206 35.7028 56.4577 37.347 57.4366 37.9611C58.4155 38.5752 59.6448 38.5616 60.7689 38.8276C63.1314 39.3866 65.0659 41.2706 65.9829 43.5222C66.6977 45.2771 66.8439 47.204 66.9818 49.0943C67.2211 52.3744 67.4604 55.6545 67.6996 58.9347C67.8061 60.394 67.9458 61.9448 68.8325 63.1076C69.7192 64.2704 71.6393 64.7576 72.6361 63.688C73.5887 62.6659 73.1596 61.0477 73.1403 59.6494C73.1211 58.2512 74.3828 56.5101 75.5725 57.2416L75.992 56.288C78.7094 55.3132 81.0889 53.5747 82.8455 51.2805C84.6022 48.9862 85.6617 46.2335 85.8972 43.3517C86.2012 38.7099 84.3573 33.7329 86.4229 29.5668Z" fill="#E6E6E6"/>
<path d="M89.1997 59.0009C89.4622 58.7531 89.6484 58.4352 89.7365 58.0848C89.8245 57.7344 89.8107 57.3661 89.6967 57.0234C89.5826 56.6806 89.3731 56.3776 89.0929 56.1502C88.8126 55.9228 88.4732 55.7804 88.1148 55.7399L88.1193 55.8974C87.6079 56.1966 87.0246 56.3501 86.4324 56.3415C85.8423 56.3322 85.2551 56.4254 84.6967 56.6169C84.4192 56.7181 84.1787 56.901 84.0068 57.1417C83.835 57.3824 83.74 57.6695 83.7342 57.9654C83.7666 58.1921 83.8532 58.4077 83.9865 58.5937C84.1199 58.7798 84.2961 58.9309 84.5003 59.0341C84.9101 59.2364 85.3501 59.3703 85.803 59.4304C86.9699 59.6504 88.3357 59.8168 89.1997 59.0009Z" fill="#E6E6E6"/>
<path d="M111.956 29.6445C112.445 29.3115 112.86 28.881 113.175 28.3801C113.328 28.1266 113.4 27.8328 113.383 27.5372C113.366 27.2416 113.261 26.9581 113.08 26.7238C112.712 26.404 112.238 26.2326 111.751 26.243C110.429 26.1441 109.1 26.3011 107.836 26.7055C109.133 27.8568 110.431 29.0081 111.728 30.1595L111.956 29.6445Z" fill="#E6E6E6"/>
<path d="M105.469 32.6388C105.993 33.2186 105.826 34.1178 105.678 34.8859C105.529 35.6539 105.51 36.6137 106.17 37.0327C106.741 37.3959 107.543 37.0995 107.961 36.5663C108.335 35.9975 108.563 35.3451 108.624 34.667C108.83 33.6815 108.923 32.6757 108.901 31.6691C108.876 30.655 108.519 29.6772 107.885 28.8866C107.434 28.3724 106.835 28.0122 106.17 27.8566C105.505 27.701 104.808 27.7577 104.177 28.0189L104.78 27.9891C104.342 28.5526 104.01 29.1913 103.799 29.8739C103.699 30.2168 103.692 30.5805 103.779 30.9271C103.866 31.2737 104.044 31.5906 104.295 31.8449C104.652 32.1566 105.151 32.2869 105.469 32.6388Z" fill="#E6E6E6"/>
<path d="M135.04 22.9155L135.147 22.585C134.699 22.8447 134.353 23.2507 134.168 23.7351C133.983 24.2195 133.97 24.7529 134.131 25.2459C134.476 24.9736 134.741 24.6141 134.901 24.2044C135.061 23.7948 135.109 23.3499 135.04 22.9155Z" fill="#E6E6E6"/>
<path d="M129.215 27.6473C129.785 27.3236 130.272 26.8704 130.637 26.3242C131.001 25.778 131.232 25.1538 131.313 24.5018C131.374 24.0964 131.328 23.6818 131.177 23.3005C131.099 23.1112 130.976 22.944 130.819 22.8137C130.662 22.6835 130.474 22.5942 130.274 22.5539L130.03 22.9387C129.68 22.637 129.092 22.9473 128.945 23.3858C128.85 23.8411 128.889 24.3142 129.059 24.7474C129.227 25.1832 129.22 25.6678 129.037 26.098C128.84 26.351 128.619 26.5839 128.377 26.7932C128.258 26.9012 128.181 27.0472 128.158 27.2061C128.135 27.365 128.167 27.5269 128.25 27.6643C128.48 27.9271 128.91 27.8168 129.215 27.6473Z" fill="#E6E6E6"/>
<path d="M126.731 25.4975C126.94 25.1209 127.039 24.6928 127.015 24.2626L126.482 24.0949C126.14 24.2335 125.838 24.4527 125.6 24.7339C125.527 24.8066 125.472 24.8943 125.438 24.9909C125.403 25.0875 125.39 25.1906 125.4 25.2927C125.41 25.3948 125.442 25.4935 125.495 25.5816C125.547 25.6697 125.619 25.7451 125.704 25.8025C125.788 25.8598 125.885 25.8976 125.986 25.9132C126.087 25.9288 126.191 25.9217 126.289 25.8926C126.387 25.8634 126.478 25.8129 126.554 25.7446C126.631 25.6763 126.691 25.5919 126.731 25.4975Z" fill="#E6E6E6"/>
<path d="M152.82 22.7916C152.868 22.832 152.916 22.8737 152.964 22.9145C153.007 22.9056 153.047 22.8895 153.09 22.8842L152.82 22.7916Z" fill="#E6E6E6"/>
<path d="M151.964 27.4841C152.454 27.087 152.944 26.6899 153.434 26.2928C153.695 26.1082 153.916 25.8746 154.087 25.6049C154.204 25.3496 154.255 25.0687 154.234 24.7886C154.213 24.5085 154.122 24.2382 153.969 24.0029C153.698 23.5859 153.358 23.2179 152.964 22.9145C152.531 23.0171 152.151 23.2752 151.895 23.6398C151.64 24.0044 151.527 24.4503 151.577 24.8929C151.666 25.456 152.019 26.0581 151.73 26.5496C151.618 26.741 151.425 26.8713 151.296 27.0515C151.167 27.2317 151.125 27.5187 151.302 27.6512C151.5 27.7984 151.773 27.6391 151.964 27.4841Z" fill="#E6E6E6"/>
<path d="M153.036 29.9151C153.218 29.9249 153.4 29.8953 153.57 29.8284C153.74 29.7614 153.893 29.6587 154.02 29.5271C154.675 28.9894 155.248 28.3586 155.721 27.6548C154.619 28.0047 153.516 28.3546 152.413 28.7045L152.757 29.1072C152.452 29.3068 152.678 29.8464 153.036 29.9151Z" fill="#E6E6E6"/>
<path d="M156.126 32.1887C156.194 32.361 156.315 32.5064 156.473 32.6028C156.631 32.6992 156.815 32.7413 156.999 32.7225C157.182 32.6981 157.357 32.6338 157.513 32.5341C157.668 32.4344 157.8 32.3018 157.899 32.1456C158.066 31.898 158.165 31.61 158.184 31.3115C158.203 31.013 158.143 30.7147 158.008 30.4475C157.874 30.1804 157.671 29.954 157.42 29.7919C157.169 29.6298 156.879 29.5377 156.581 29.5254L156.885 29.9913C156.963 30.7866 155.884 31.4275 156.126 32.1887Z" fill="#E6E6E6"/>
<path d="M177.541 40.8992C177.839 41.1221 178.201 41.2422 178.573 41.2413C178.945 41.2404 179.307 41.1186 179.604 40.8943C179.797 40.7294 179.953 40.5265 180.064 40.2982C180.175 40.0699 180.237 39.8211 180.248 39.5675C180.258 39.3139 180.216 39.0609 180.124 38.8243C180.032 38.5877 179.893 38.3727 179.714 38.1926L179.151 38.5076C178.839 38.3065 178.461 38.2346 178.097 38.3071C177.732 38.3796 177.41 38.5907 177.198 38.8961C177.008 39.2162 176.939 39.5937 177.001 39.9608C177.064 40.3279 177.255 40.6606 177.541 40.8992Z" fill="#E6E6E6"/>
<path d="M184.089 41.6419C184.364 41.5621 184.613 41.4132 184.813 41.2093C185.013 41.0054 185.158 40.7534 185.233 40.4774L184.139 40.3333C183.834 40.1029 183.48 39.9478 183.104 39.8805C182.916 39.8523 182.723 39.8897 182.559 39.9866C182.395 40.0834 182.269 40.2338 182.202 40.4126C182.179 40.5647 182.195 40.7202 182.249 40.8644C182.303 41.0085 182.392 41.1365 182.509 41.2361C182.716 41.4335 182.97 41.5745 183.246 41.6456C183.523 41.7166 183.813 41.7154 184.089 41.6419Z" fill="#E6E6E6"/>
<path d="M179.568 43.8346C179.587 44.013 179.657 44.1822 179.769 44.3225C179.88 44.4628 180.03 44.5683 180.199 44.6267C180.384 44.7147 180.591 44.7449 180.794 44.7135C180.996 44.6821 181.184 44.5905 181.334 44.4506C181.4 44.3758 181.448 44.2864 181.472 44.1896C181.497 44.0928 181.498 43.9916 181.476 43.8942C181.454 43.7969 181.409 43.7062 181.345 43.6298C181.28 43.5534 181.199 43.4935 181.107 43.455L180.286 43.3054C179.969 43.1409 179.563 43.4767 179.568 43.8346Z" fill="#E6E6E6"/>
<path d="M131.93 49.6177L131.294 49.0364C131.463 49.2724 131.68 49.4704 131.93 49.6177Z" fill="#E6E6E6"/>
<path d="M127.076 46.1949C127.467 48.0149 129.424 49.4976 131.201 48.9507L131.294 49.0364C130.729 48.261 130.633 47.1136 130.765 46.1158C131.01 44.406 131.681 42.7855 132.716 41.404C133.751 40.0225 135.117 38.9243 136.687 38.2109C137.117 38.0764 137.502 37.8253 137.799 37.4855C138.052 37.1146 137.957 36.4786 137.521 36.3739C137.284 36.3467 137.045 36.4022 136.844 36.5309L133.543 38.1586C131.875 38.9807 130.175 39.8263 128.865 41.1472C127.555 42.468 126.685 44.3749 127.076 46.1949Z" fill="#E6E6E6"/>
<path d="M73.7861 108.778C70.7102 106.572 67.3412 104.808 63.7772 103.538C61.5866 102.758 59.2329 102.163 56.9504 102.606C55.6988 102.865 54.5258 103.417 53.5269 104.215C52.528 105.014 51.7313 106.038 51.2015 107.203C50.691 108.377 50.451 109.65 50.4991 110.93C50.5473 112.209 50.8824 113.461 51.4796 114.593C52.5321 116.569 54.3548 118.142 54.9641 120.297C55.3749 121.75 55.1803 123.296 54.9826 124.793C54.5785 127.852 54.1744 130.911 53.7703 133.969C53.4025 136.754 53.0439 139.652 53.9241 142.319C54.8043 144.987 57.3159 147.338 60.1058 147.054L60.6586 147.013C58.8131 145.756 58.2958 143.153 58.8453 140.986C59.3949 138.819 60.7895 136.982 62.1512 135.21C66.1921 129.954 70.233 124.697 74.2739 119.441C75.9089 117.314 77.6381 114.686 76.7663 112.147C76.2707 110.705 75.0244 109.666 73.7861 108.778Z" fill="#E6E6E6"/>
<path d="M46.2473 95.4896C45.838 95.3507 45.4058 95.6594 45.1651 96.019C44.9707 96.4051 44.7422 96.7731 44.4824 97.1185C43.8529 97.7685 42.7057 97.6394 42.0268 97.0414C41.3479 96.4434 41.0537 95.5185 40.922 94.6226C40.7639 93.5475 40.8321 92.3482 41.5404 91.5252C42.2695 90.6779 43.4679 90.4506 44.5706 90.2746C45.7097 90.0928 46.9859 89.9412 47.9191 90.6203C48.5069 91.0481 48.8495 91.7383 49.394 92.2202C49.9385 92.702 50.9071 92.8846 51.3168 92.2836C51.4241 92.0706 51.4783 91.8347 51.4749 91.5962C51.4715 91.3577 51.4105 91.1235 51.2972 90.9137C51.0668 90.4956 50.9282 90.0332 50.8907 89.5571C50.9181 88.8965 51.4477 88.3715 51.9895 87.9939C52.5313 87.6163 53.1432 87.2905 53.4987 86.7334C53.9359 86.0481 53.8895 85.1654 54.1607 84.3988C54.8172 82.5434 57.1601 81.7181 57.8426 79.8722C58.007 79.4839 58.0255 79.0491 57.8946 78.6482C57.609 77.913 56.8368 78.0573 56.7895 77.1585C56.7442 76.2989 57.46 75.4559 58.1873 75.0969C59.19 74.6019 60.3591 74.6421 61.4766 74.612C62.5941 74.5819 63.798 74.4331 64.6182 73.6721C64.8836 73.398 65.0882 73.0708 65.2188 72.712C65.3493 72.3532 65.4027 71.9708 65.3755 71.5899C65.3483 71.209 65.2411 70.8381 65.061 70.5016C64.8809 70.165 64.6319 69.8704 64.3302 69.6369C63.7191 69.2141 62.9466 69.0671 62.352 68.6213C61.6113 68.0661 61.2608 67.1414 60.6839 66.417C60.2041 65.8654 59.655 65.3783 59.0503 64.968C58.5553 64.6001 58.0604 64.2322 57.5654 63.8642C56.6707 63.1991 55.7396 62.5171 54.6508 62.2801C53.562 62.0432 52.2654 62.3785 51.7201 63.3519C51.5051 63.7857 51.3876 64.2615 51.376 64.7457C51.3264 65.8858 51.3738 67.028 51.5179 68.1601C51.6078 69.0713 51.6977 69.9825 51.7875 70.8937C51.8681 71.7105 51.7816 72.7875 50.99 72.9995C49.234 73.4698 49.8265 70.8688 49.4371 70.0719C48.8409 68.8522 46.102 68.2665 44.9311 67.7582C44.1998 67.4407 43.428 67.0903 42.9865 66.4256C42.4369 65.5984 42.5497 64.4725 42.9807 63.5775C43.4116 62.6825 44.1138 61.954 44.7517 61.193C45.402 60.4174 45.9941 59.5949 46.5855 58.7733C47.2714 57.8204 47.9574 56.8676 48.6433 55.9147C49.523 54.6926 50.4479 53.2011 49.9481 51.78C49.8398 51.5899 49.678 51.436 49.4828 51.3376C49.2876 51.2393 49.0677 51.2008 48.8508 51.227C48.6339 51.2532 48.4295 51.3429 48.2632 51.485C48.0969 51.627 47.9762 51.815 47.9161 52.0255C47.6971 52.7927 48.2814 53.7722 47.7224 54.3408C47.531 54.4953 47.2914 54.5774 47.0456 54.5728C46.7997 54.5682 46.5634 54.4771 46.3778 54.3156C46.0158 53.9807 45.7401 53.563 45.5742 53.0982C44.897 51.5906 44.2372 50.0737 43.5421 48.5744C43.3224 48.1004 43.093 47.2889 42.4271 47.3688C41.8489 47.4381 41.5367 48.2821 41.5568 48.7721C41.5861 49.485 41.9794 50.122 42.28 50.7688C42.5806 51.4157 42.7909 52.1924 42.4608 52.8246C42.0428 53.6252 40.9844 53.805 40.083 53.7785C38.3839 53.727 36.719 53.2869 35.2157 52.492C35.1765 53.3286 35.1372 54.1652 35.0979 55.0018C33.9014 54.5001 32.705 53.9984 31.5085 53.4967C31.2761 53.3993 31.0437 53.3018 30.8113 53.2044C29.8021 52.7812 28.7915 52.3575 27.7525 52.014C27.1627 51.8189 26.5646 51.6501 25.9668 51.4812C25.6034 51.3786 25.2399 51.276 24.8765 51.1734C24.1594 50.9188 23.3988 50.8101 22.6392 50.8537C21.8412 50.9541 21.1294 51.3834 20.3913 51.7044C18.7447 52.4205 16.6149 51.7001 14.8503 51.6874C14.1504 50.6637 13.2054 49.8322 12.1019 49.2689C10.9983 48.7055 9.77133 48.4284 8.53323 48.4628C7.29512 48.4971 6.08537 48.8419 5.01463 49.4656C3.94389 50.0893 3.04633 50.9719 2.40404 52.0328C2.0938 52.5704 1.81752 53.1268 1.57682 53.699C1.3374 54.2365 1.09797 54.774 0.858543 55.3115C0.507314 56.1 0.148335 56.9307 0.217371 57.7914C0.286407 58.6521 0.94503 59.5313 1.8069 59.5235C-0.225459 60.4452 -0.648367 63.6706 1.07744 65.0868C1.55532 65.479 2.14133 65.7355 2.57137 66.1798C2.8964 66.5156 3.11385 66.941 3.19581 67.4015C3.27778 67.8619 3.22051 68.3364 3.03137 68.7641C2.84223 69.1917 2.52983 69.553 2.13429 69.8015C1.73874 70.05 1.27808 70.1745 0.811433 70.1589C2.01547 70.625 3.34172 70.6684 4.57354 70.2819C5.80535 69.8953 6.86993 69.1018 7.59335 68.0308C8.33119 66.8736 8.65188 65.4278 9.65561 64.4926C10.9849 63.2541 13.1806 63.3502 14.7137 64.324C16.2469 65.2979 17.2168 66.956 17.8839 68.6473C18.7582 70.8638 19.3177 73.3965 21.1802 74.879C22.0808 75.5959 23.2214 75.999 24.0174 76.8309C25.151 78.0155 25.3471 79.8034 25.3215 81.4442C25.296 83.085 25.1196 84.7874 25.7162 86.3157C26.3129 87.844 28.0234 89.1009 29.5572 88.5249C29.1178 89.8308 29.1313 91.2472 29.5954 92.5445C30.0596 93.8419 30.9473 94.9443 32.1148 95.6734C31.8353 93.9371 31.5559 92.2008 31.2765 90.4644C32.6692 90.8572 33.5719 92.2105 34.0933 93.5626C34.6146 94.9147 34.8901 96.377 35.6458 97.6131C36.8357 99.5595 38.9906 100.398 41.1827 100.391C43.5508 100.383 44.4498 99.2518 46.0104 97.586C46.3239 97.3018 46.5619 96.9439 46.7028 96.5445C46.7665 96.3432 46.7555 96.1256 46.6718 95.9318C46.5881 95.738 46.4374 95.581 46.2473 95.4896Z" fill="#E6E6E6"/>
<path d="M52.9527 95.4032C51.6291 95.1948 50.3054 94.9864 48.9818 94.778C49.6757 95.1959 50.3696 95.6138 51.0635 96.0316C51.6421 96.4174 52.2712 96.721 52.9329 96.9339C53.2648 97.0385 53.6146 97.0736 53.9606 97.0371C54.3065 97.0006 54.6413 96.8933 54.9442 96.7218L54.7748 96.3974C54.5078 95.7213 53.6697 95.5161 52.9527 95.4032Z" fill="#E6E6E6"/>
<path d="M52.0534 102.774L52.0625 102.751C51.9825 102.618 51.8645 102.512 51.7239 102.446C51.5833 102.381 51.4263 102.359 51.2733 102.384C50.9684 102.439 50.6567 102.444 50.3502 102.399C50.1555 102.323 49.9818 102.201 49.8437 102.044C49.7057 101.887 49.6072 101.699 49.5565 101.495C49.4249 101.099 49.386 100.675 49.2361 100.285C49.1279 99.9763 48.9368 99.7037 48.6839 99.497C48.431 99.2904 48.1261 99.1576 47.8027 99.1134C47.4782 99.0873 47.1565 99.1902 46.9071 99.3998C46.6578 99.6095 46.5008 99.909 46.4702 100.234C46.4957 100.568 46.6017 100.891 46.7792 101.175C46.9219 101.45 47.0647 101.726 47.2075 102.001C47.3278 102.247 47.4662 102.484 47.6216 102.71C47.8743 103.059 48.2047 103.344 48.5867 103.543C48.9686 103.741 49.3914 103.848 49.8217 103.854C50.2519 103.86 50.6776 103.766 51.065 103.578C51.4524 103.391 51.7908 103.115 52.0534 102.774Z" fill="#E6E6E6"/>
<path d="M44.3231 32.2114C45.3309 32.8066 46.5931 33.2169 47.072 34.2863L47.3482 34.3757C47.0469 34.7508 46.7455 35.1259 46.4442 35.501C46.0718 35.9646 45.6802 36.4811 45.6889 37.0761C45.7009 37.8955 46.4877 38.5136 47.2827 38.7068C48.1311 38.8817 49.014 38.7346 49.7602 38.294C50.5064 37.8534 51.0625 37.1508 51.3207 36.3226C51.4152 35.9771 51.4542 35.6189 51.5372 35.2705C51.7788 34.4442 52.1436 33.6592 52.6191 32.9419C55.2955 28.4313 57.9718 23.9208 60.6482 19.4102C60.9815 18.8485 61.3251 18.1765 61.0744 17.5732C60.9406 17.318 60.7337 17.1088 60.4801 16.9725C60.2266 16.8362 59.9382 16.7791 59.652 16.8085C59.0807 16.878 58.5297 17.0636 58.0327 17.354C57.8119 16.9655 57.5002 16.6364 57.1245 16.3951C56.7488 16.1538 56.3202 16.0074 55.8756 15.9686C54.9865 15.8999 54.0921 15.9779 53.2283 16.1996C51.2766 16.4946 49.3947 17.1422 47.6741 18.111C46.7328 18.5877 45.697 19.1764 45.4239 20.1969C45.088 21.4523 46.1705 22.7317 47.417 23.0925C48.6634 23.4533 49.9938 23.1503 51.2552 22.8466C51.3978 23.4593 51.3384 24.1017 51.0859 24.6776C50.8333 25.2535 50.4013 25.7319 49.8544 26.0412C49.3076 26.3504 48.6755 26.4737 48.0527 26.3927C47.43 26.3118 46.8503 26.0308 46.4004 25.5919C45.4962 24.7099 45.0533 23.1787 43.8118 22.9511C42.5743 22.7241 41.5906 24.0464 41.3174 25.2767C41.0503 26.6018 41.1952 27.9771 41.7326 29.2171C42.2701 30.4571 43.1742 31.5022 44.3231 32.2114Z" fill="#E6E6E6"/>
<path d="M59.8453 53.9155C59.2494 52.2327 58.4661 50.6225 57.5103 49.1154C56.7859 47.9237 55.8917 46.8443 54.8562 45.9113C53.9097 45.0925 52.8218 44.4541 51.646 44.0275C50.5048 43.614 49.2342 43.4098 48.0804 43.7868C46.9267 44.1638 45.9451 45.2384 45.9685 46.4539C45.9944 47.7979 47.1682 48.849 48.3916 49.4012C49.615 49.9535 50.9759 50.1938 52.1301 50.8794C52.9149 51.3562 53.5707 52.0188 54.04 52.809C54.5092 53.5991 54.7776 54.4927 54.8214 55.4111L55.1121 55.8926C54.4535 56.1112 53.8393 56.4462 53.2986 56.8817C53.0309 57.1031 52.8262 57.3913 52.7052 57.7173C52.5843 58.0433 52.5514 58.3955 52.6099 58.7383C52.8116 59.5522 53.6411 60.0192 54.3912 60.3913C55.7772 61.079 57.1632 61.7667 58.5491 62.4543C57.8435 60.3463 60.1539 58.3847 60.2817 56.165C60.2866 55.3936 60.1383 54.6289 59.8453 53.9155Z" fill="#E6E6E6"/>
<path d="M24.9951 48.2239C25.8359 48.878 27.1286 48.5721 27.8988 47.836C28.669 47.0998 29.0442 46.0523 29.394 45.0452C29.2662 46.0421 29.2783 47.052 29.43 48.0455C29.5089 48.5423 29.69 49.0173 29.9617 49.4404C30.2334 49.8635 30.5898 50.2255 31.0084 50.5034C31.3885 50.7122 31.7982 50.8617 32.2233 50.9465C34.1996 51.3971 36.265 51.2492 38.1573 50.5218L38.1743 49.8736C37.2237 49.9822 36.5043 48.9378 36.4415 47.9813C36.3788 47.0249 36.7253 46.087 36.7557 45.129C36.7862 44.171 36.3253 43.0517 35.3838 42.8813C35.5486 43.2128 35.6086 43.5868 35.556 43.9534C35.5034 44.32 35.3407 44.6619 35.0893 44.9335C34.838 45.2051 34.51 45.3937 34.1491 45.474C33.7882 45.5543 33.4114 45.5226 33.0689 45.3831C31.9791 44.9393 31.5832 43.6092 30.741 42.7863C30.2206 42.3226 29.575 42.0234 28.8853 41.9262C28.1957 41.829 27.4927 41.9383 26.8648 42.2402C26.2449 42.557 25.7011 43.005 25.2709 43.553C24.8407 44.101 24.5344 44.7361 24.3732 45.4143C24.1174 46.3984 24.1933 47.6002 24.9951 48.2239Z" fill="#E6E6E6"/>
<path d="M50.9433 41.3979L50.9823 41.3345C50.7476 40.6555 50.0201 40.2574 49.3099 40.1564C48.594 40.109 47.8752 40.1328 47.1641 40.2274C46.4463 40.3204 45.7187 40.1599 45.1064 39.7734C44.6175 39.4073 44.339 38.8314 43.9483 38.3617C43.5575 37.8921 42.925 37.5059 42.3573 37.7304C41.7428 37.9736 41.5788 38.8365 41.8771 39.4272C42.2284 39.9941 42.7584 40.4274 43.3832 40.6587C45.7494 41.7467 48.4118 42.0071 50.9433 41.3979Z" fill="#E6E6E6"/>
<path d="M42.8666 43.4331C42.67 43.5774 42.5368 43.7922 42.4947 44.0326C42.4526 44.273 42.505 44.5204 42.6408 44.723C42.7767 44.9257 42.9855 45.0678 43.2235 45.1198C43.4616 45.1717 43.7105 45.1294 43.9182 45.0017L44.1255 45.2067C44.4013 44.712 44.515 44.0493 44.1624 43.6063C44.0056 43.4227 43.7867 43.3034 43.5475 43.2715C43.3084 43.2395 43.066 43.2971 42.8666 43.4331Z" fill="#E6E6E6"/>
<path d="M40.4402 45.2078C40.4433 45.0311 40.3928 44.8576 40.2955 44.7101C40.1982 44.5626 40.0586 44.4481 39.8951 44.3816C39.7838 44.3625 39.6698 44.3661 39.56 44.3923C39.4501 44.4185 39.3467 44.4667 39.2559 44.534C39.1651 44.6013 39.0889 44.6863 39.0318 44.7839C38.9747 44.8815 38.9379 44.9896 38.9236 45.1019C38.9065 45.3305 38.9365 45.5601 39.0117 45.7766C39.087 45.9931 39.2058 46.1918 39.3609 46.3604C39.4511 46.4962 39.5691 46.6112 39.707 46.698C39.8448 46.7848 39.9995 46.8413 40.1607 46.8638C40.4857 46.8745 40.817 46.5341 40.6852 46.2363L40.1891 46.2266C40.342 45.908 40.4275 45.5611 40.4402 45.2078Z" fill="#E6E6E6"/>
<path d="M30.7374 40.1175C30.9196 40.2655 31.1018 40.4134 31.284 40.5614C31.5997 40.8347 31.9406 41.0773 32.3023 41.2857C32.9348 41.6367 33.6788 41.7279 34.3772 41.5401C34.722 41.4416 35.0365 41.2577 35.2917 41.0054C35.5469 40.7531 35.7346 40.4406 35.8375 40.0965C36.0554 39.2741 35.7 38.4201 35.3522 37.6438C35.2728 37.4217 35.1418 37.2216 34.9701 37.0602C34.8821 36.9821 34.7698 36.9369 34.6523 36.9323C34.5349 36.9277 34.4194 36.9639 34.3256 37.0348C34.2575 37.1197 34.2123 37.2206 34.1941 37.328C34.176 37.4354 34.1855 37.5456 34.2218 37.6482C34.2966 37.8527 34.3308 38.0699 34.3225 38.2875C34.2878 38.5022 34.0629 38.7051 33.8648 38.6163L33.8332 39.347C32.8871 38.8672 32.3867 37.591 31.3338 37.4652C31.0975 37.437 30.858 37.4743 30.6414 37.5731C30.4248 37.6719 30.2394 37.8283 30.1055 38.0255C29.9716 38.2226 29.8943 38.4527 29.8821 38.6908C29.8698 38.9289 29.9231 39.1658 30.0361 39.3757C30.2189 39.6667 30.4572 39.9188 30.7374 40.1175Z" fill="#E6E6E6"/>
<path d="M28.484 36.9631C28.7028 36.8127 28.876 36.6048 28.9844 36.3622C29.0928 36.1195 29.1322 35.8516 29.0982 35.588C29.072 35.4603 29.0181 35.3399 28.9402 35.2355C28.8623 35.131 28.7624 35.0451 28.6476 34.9837C28.5328 34.9223 28.4059 34.887 28.2759 34.8803C28.1459 34.8737 28.0161 34.8958 27.8956 34.945C27.6253 35.1475 27.4354 35.4394 27.3597 35.7689C27.1104 36.4735 26.861 37.1782 26.6116 37.8828L27.0307 37.5773C27.5492 37.4654 28.0422 37.2571 28.484 36.9631Z" fill="#E6E6E6"/>
<path d="M33.3404 32.6389C33.4153 32.5443 33.4686 32.4344 33.4965 32.317C33.5244 32.1995 33.5263 32.0774 33.502 31.9592C33.4777 31.8409 33.4279 31.7295 33.3559 31.6326C33.284 31.5357 33.1918 31.4559 33.0857 31.3986L32.5617 31.3495C32.4425 31.3797 32.3321 31.4375 32.2393 31.5182C32.1465 31.5989 32.0738 31.7002 32.0272 31.8141C31.9805 31.9281 31.9611 32.0513 31.9706 32.1741C31.9801 32.2968 32.0182 32.4157 32.0819 32.521C32.1455 32.6263 32.2329 32.7153 32.337 32.7807C32.4411 32.8461 32.5591 32.8861 32.6815 32.8976C32.8039 32.909 32.9272 32.8916 33.0417 32.8467C33.1561 32.8017 33.2584 32.7306 33.3404 32.6389Z" fill="#E6E6E6"/>
<path d="M38.1614 33.4492C38.6504 33.6835 39.2694 33.9069 39.6949 33.5703C39.8209 33.4561 39.9146 33.3106 39.9666 33.1485C40.0186 32.9864 40.027 32.8134 39.991 32.6471C39.9147 32.3151 39.7671 32.0038 39.5586 31.7347C38.9081 30.799 38.0815 29.9995 37.1253 29.3809L36.8889 29.6886C36.5586 30.5477 36.2398 31.5505 36.7004 32.347C37.011 32.884 37.6026 33.1813 38.1614 33.4492Z" fill="#E6E6E6"/>
<path d="M41.8043 34.2137L42.7187 34.628C42.6291 34.4715 42.4925 34.3472 42.3283 34.2728C42.1642 34.1985 41.9809 34.1778 41.8043 34.2137Z" fill="#E6E6E6"/>
<path d="M39.3401 37.0958L38.9081 37.2384C38.5406 37.8433 38.7 38.6167 38.8709 39.3037C38.979 39.738 39.212 40.2724 39.6584 40.2527C40.0927 40.2335 40.2849 39.7059 40.3683 39.2784C40.4984 38.8141 40.5125 38.3248 40.4094 37.8537C40.3505 37.6204 40.2104 37.4159 40.0144 37.277C39.8184 37.1381 39.5793 37.0738 39.3401 37.0958Z" fill="#E6E6E6"/>
<path d="M32.4497 35.0601L32.7694 35.1891C32.8443 35.1784 32.9137 35.1432 32.9666 35.089C33.0196 35.0348 33.0533 34.9646 33.0624 34.8893C33.0715 34.814 33.0555 34.7378 33.017 34.6725C32.9785 34.6072 32.9195 34.5564 32.8493 34.5281C32.7791 34.4998 32.7015 34.4954 32.6285 34.5158C32.5556 34.5361 32.4914 34.58 32.4458 34.6406C32.4003 34.7012 32.376 34.7752 32.3767 34.851C32.3774 34.9269 32.403 35.0004 32.4497 35.0601Z" fill="#E6E6E6"/>
<path d="M48.5677 59.5501C48.4129 59.5536 48.261 59.594 48.125 59.6682C47.9889 59.7424 47.8725 59.8481 47.7855 59.9765C47.6985 60.1049 47.6433 60.2522 47.6247 60.4063C47.6061 60.5604 47.6246 60.7167 47.6785 60.8621C47.9925 61.5394 49.0738 61.5423 49.5543 60.9714C49.6774 60.8093 49.7656 60.6233 49.8133 60.4252C49.861 60.2272 49.8672 60.0214 49.8316 59.8209C49.7959 59.6203 49.7191 59.4293 49.6061 59.26C49.4931 59.0906 49.3462 58.9466 49.1748 58.8369L48.5677 59.5501Z" fill="#E6E6E6"/>
<path d="M64.1411 75.5932C64.0154 75.6268 63.8977 75.6853 63.795 75.7652C63.6923 75.8451 63.6066 75.9448 63.543 76.0585C63.4794 76.1722 63.4392 76.2974 63.4248 76.4269C63.4104 76.5564 63.422 76.6875 63.459 76.8124L64.3567 76.8748C64.6606 76.722 64.9646 76.5691 65.2686 76.4163C65.2502 76.2873 65.2062 76.1633 65.1392 76.0516C65.0722 75.94 64.9835 75.8429 64.8784 75.7662C64.7732 75.6894 64.6538 75.6346 64.5272 75.6049C64.4006 75.5752 64.2693 75.5712 64.1411 75.5932Z" fill="#E6E6E6"/>
<path d="M60.4924 76.7056C60.2355 76.8883 60.0294 77.1335 59.8933 77.4181C59.7573 77.7027 59.6958 78.0174 59.7147 78.3323C59.7439 78.6466 59.8722 78.9433 60.081 79.1796C60.2898 79.416 60.5682 79.5796 60.876 79.6469C61.1867 79.6957 61.5043 79.6245 61.7645 79.4477C62.0248 79.2708 62.2083 79.0016 62.278 78.6944C62.4298 77.7642 61.4319 77.083 61.0733 76.2117L60.4924 76.7056Z" fill="#E6E6E6"/>
<path d="M95.3569 70.5627C95.4516 71.261 94.8236 71.8726 94.8003 72.5769C94.7726 73.4126 95.6806 74.0627 96.5112 73.9807C96.9234 73.9091 97.3135 73.7427 97.6508 73.4946C97.988 73.2465 98.2631 72.9233 98.4546 72.5507L98.4726 72.4723C98.068 72.0142 97.6634 71.5562 97.2589 71.0981C96.762 70.5355 96.2354 69.8952 96.2548 69.1443C96.2644 68.7741 96.4101 68.4155 96.4018 68.0453C96.3824 67.779 96.3231 67.5171 96.2259 67.2685C96.1163 66.941 95.9672 66.572 95.6405 66.4614C95.2316 66.3231 94.819 66.6861 94.6238 67.0717C94.4483 67.4273 94.363 67.8208 94.3754 68.2174C94.3878 68.614 94.4976 69.0014 94.6951 69.3453C94.9313 69.7472 95.2941 70.1006 95.3569 70.5627Z" fill="#E6E6E6"/>
<path d="M91.5416 73.0194C91.6301 73.0673 91.7279 73.0954 91.8282 73.1018C91.9286 73.1083 92.0291 73.0929 92.123 73.0567C92.4835 72.9952 92.8299 72.8691 93.1458 72.6844C93.3026 72.59 93.4316 72.4555 93.5195 72.2947C93.6074 72.1339 93.6511 71.9526 93.6461 71.7694C93.5914 71.5389 93.4698 71.3299 93.2966 71.1688C93.1233 71.0076 92.9062 70.9016 92.6728 70.864C92.5108 70.8069 92.3372 70.7906 92.1674 70.8166C91.9976 70.8426 91.8368 70.9101 91.6992 71.013C91.3977 71.2963 91.4337 71.7771 91.4927 72.1869L91.4292 72.2937C91.3725 72.5468 91.3362 72.8615 91.5416 73.0194Z" fill="#E6E6E6"/>
<path d="M155.222 102.861C155.134 102.643 155.047 102.425 154.959 102.207C154.839 102.503 154.884 102.805 155.222 102.861Z" fill="#E6E6E6"/>
<path d="M207.75 57.0088C206.628 55.7883 205.94 55.0846 205.231 53.5718C204.845 52.7374 204.259 52.0117 203.525 51.4596C202.791 50.9074 201.932 50.5458 201.024 50.4073C198.695 50.0228 196.314 50.6316 193.956 50.5096C190.179 50.3142 186.774 48.2849 183.157 47.178C181.132 46.6096 179.07 46.1836 176.985 45.9029C175.784 45.7126 174.583 45.5224 173.382 45.3321C169.445 44.7084 165.483 44.0829 161.498 44.1657C160.349 44.1896 158.749 43.8436 158.841 42.6959C158.955 41.2705 161.515 41.4577 162.007 40.1154C162.312 39.2851 161.583 38.4134 160.783 38.0379C159.984 37.6625 159.061 37.5496 158.335 37.0455C157.609 36.5415 157.212 35.373 157.879 34.7932C156.03 35.7425 154.182 36.6918 152.333 37.6412C150.796 38.4304 149.079 39.4573 148.808 41.166C147.881 41.4111 147.071 41.9751 146.518 42.759C145.479 42.7645 144.661 43.7645 144.49 44.792C144.318 45.8194 144.63 46.8592 144.938 47.8541C144.561 47.1303 144.161 46.379 143.496 45.9067C142.831 45.4345 141.819 45.3445 141.252 45.9312C140.671 46.5332 140.807 47.5432 141.218 48.2726C141.63 49.002 142.262 49.5907 142.65 50.3328C143.862 52.6504 141.665 55.9133 139.066 55.6552C139.24 53.262 139.415 50.8688 139.589 48.4756C139.699 47.7394 139.638 46.9877 139.408 46.2796C139.125 45.5945 138.399 45.0318 137.676 45.1936C136.377 45.4845 136.488 47.3908 137.029 48.6094C137.569 49.8281 138.108 51.5228 137.005 52.2692C136.292 52.7511 135.326 52.4535 134.557 52.0688C133.788 51.6841 132.966 51.21 132.125 51.3897C131.284 51.5695 130.756 52.8568 131.498 53.2903C130.266 53.0759 129.035 52.8614 127.803 52.647C127.742 53.0102 127.606 53.3566 127.403 53.6637C127.2 53.9709 126.935 54.2319 126.625 54.43C126.315 54.6282 125.967 54.7589 125.603 54.8139C125.239 54.8688 124.868 54.8468 124.514 54.7491C124.393 54.2471 124.272 53.7451 124.151 53.243C123.971 53.1928 123.791 53.1425 123.61 53.0922C124.176 53.25 123.291 55.6404 122.497 57.4665C121.43 57.3411 119.871 57.317 119.693 57.0107C118.841 55.5441 118.942 52.0507 117.462 51.2256C116.72 50.8119 115.959 50.4348 115.179 50.0945C114.769 49.8991 114.336 49.7567 113.89 49.6707C112.981 49.5272 112.065 49.8097 111.188 50.0887C110.151 50.4184 109.091 50.7605 108.233 51.4296C107.5 52.0664 106.872 52.8147 106.371 53.6472C104.677 56.1593 102.983 58.6713 101.288 61.1834C100.783 61.8543 100.386 62.5999 100.111 63.3935C99.9813 63.7881 99.9381 64.2061 99.9844 64.6189C100.031 65.0318 100.165 65.4297 100.379 65.7857C100.605 66.1346 100.941 66.3974 101.333 66.5318C101.726 66.6662 102.152 66.6643 102.543 66.5265C103.034 66.3135 103.526 65.8309 104.013 66.0538C104.382 66.2226 104.474 66.7079 104.435 67.112C104.341 67.5077 104.334 67.919 104.413 68.3178C104.635 68.9469 105.487 69.1658 106.095 68.8935C106.686 68.5705 107.129 68.0302 107.331 67.3866C107.917 65.8816 107.857 64.2164 108.003 62.6077C108.148 60.999 108.587 59.2783 109.854 58.278C110.232 57.9786 110.789 57.7628 111.179 58.0475C111.325 58.1805 111.426 58.3559 111.468 58.5492C111.51 58.7424 111.491 58.9439 111.413 59.1255C111.249 59.4849 111.037 59.8196 110.781 60.1198C110.348 60.7294 110.045 61.4218 109.891 62.1537C109.737 62.8856 109.735 63.6414 109.886 64.3741L110.144 64.5345C111.132 64.278 112.453 64.7373 113.763 65.1777C112.812 65.4612 111.974 66.0384 111.37 66.827C109.855 68.9563 108.758 70.9714 105.761 70.9461C105.051 70.9401 104.346 70.7993 103.635 70.7977C102.917 70.7533 102.21 70.9892 101.662 71.4557C101.123 71.9845 100.957 72.7894 100.496 73.3875C99.8893 74.1739 98.8758 74.4937 97.9502 74.8509C97.2738 75.1119 96.5608 75.464 96.2499 76.12C96.0545 76.658 96.0094 77.2392 96.1196 77.8009C96.2238 78.7944 96.4083 79.9242 97.2496 80.4605C97.5642 80.6249 97.9083 80.725 98.2619 80.755C98.6155 80.785 98.9715 80.7442 99.3093 80.6351C100.184 80.4218 101.04 80.0202 101.939 80.0802C103.35 80.1744 104.512 81.5312 104.526 82.9478C104.533 83.6648 104.324 84.4873 104.799 85.0243C105.245 85.5288 106.129 85.4389 106.591 84.9491C106.806 84.6885 106.953 84.3792 107.021 84.0482C107.089 83.7172 107.075 83.3746 106.98 83.0504C106.784 82.4044 106.482 81.7956 106.087 81.2486C106.557 81.1267 107.054 81.1715 107.494 81.3754C107.935 81.5794 108.291 81.9298 108.503 82.3672C108.816 83.0647 108.715 83.8696 108.815 84.6279C108.915 85.3862 109.376 86.2291 110.138 86.2728C110.387 86.2798 110.631 86.1992 110.827 86.0449C111.023 85.8907 111.159 85.6726 111.212 85.4283C111.22 85.0435 111.199 84.6586 111.149 84.2768C111.175 83.9011 111.344 83.5496 111.62 83.2943C111.897 83.0391 112.26 82.8995 112.636 82.9042C112.404 83.3335 112.329 83.8302 112.423 84.3092C112.517 84.7882 112.774 85.2196 113.151 85.5292C113.731 85.979 114.498 86.0795 115.22 86.2052C115.943 86.3308 116.714 86.5296 117.181 87.0968C117.957 88.0414 117.007 88.467 116.859 89.267C116.677 90.2492 117.496 91.6996 117.811 92.6393C119.256 94.6651 120.702 96.691 122.147 98.7168C122.47 99.2094 122.851 99.6614 123.281 100.063C124.708 101.291 127.06 101.17 128.429 99.8768C129.092 99.2043 129.523 98.3365 129.658 97.4008C129.793 96.465 129.625 95.5105 129.178 94.6775C128.333 93.1354 126.657 92.1803 125.829 90.6283C127.207 91.7704 128.898 92.467 130.678 92.626C133.829 93.2674 136.823 94.5251 139.488 96.3271C139.613 99.1163 140.682 101.78 142.518 103.881C142.848 101.5 143.955 99.2964 145.668 97.6133C146.782 96.5253 148.303 95.6481 149.831 95.9407C151.359 96.2333 152.518 98.1851 151.594 99.4386C152.368 99.4963 153.143 99.554 153.917 99.6117C154.264 100.477 154.612 101.342 154.959 102.207C155.021 102.025 155.139 101.868 155.297 101.758C155.454 101.649 155.642 101.593 155.834 101.598C156.559 101.708 157.067 102.383 157.757 102.633C159.057 103.103 160.446 101.8 160.614 100.426C160.783 99.0522 160.13 97.7255 159.496 96.4953C160.896 96.7551 162.342 96.6002 163.656 96.0496C164.97 95.4989 166.095 94.5765 166.894 93.3951C167.693 92.2137 168.13 90.8246 168.153 89.398C168.176 87.9714 167.783 86.569 167.022 85.3627C168.529 83.7771 170.302 82.4692 172.261 81.4986C174.074 80.6014 176.057 79.9856 177.641 78.727C179.226 77.4684 180.337 75.283 179.575 73.4068C179.037 72.0814 177.686 71.1818 177.282 69.8093C176.697 67.8225 178.474 65.7675 180.482 65.2711C182.489 64.7747 184.586 65.3848 186.563 65.9902C186.259 63.9517 188.618 62.0408 190.544 62.7646C191.351 62.4374 192.158 62.1101 192.965 61.7828C192.03 63.8484 190.003 65.1626 188.513 66.8702C187.023 68.5778 186.135 71.3586 187.692 73.0056C189.923 70.9798 192.154 68.9539 194.385 66.9281C196.719 64.8091 199.053 62.69 201.387 60.571C201.275 60.2431 201.164 59.9151 201.053 59.5872C203.261 58.7471 205.639 58.0521 207.75 57.0088Z" fill="#E6E6E6"/>
<path d="M91.8618 84.2737C91.7716 84.4037 91.7236 84.5584 91.7244 84.7167C91.7252 84.875 91.7747 85.0292 91.8662 85.1583C91.986 85.2603 92.1376 85.3172 92.2948 85.3193C92.452 85.3214 92.6051 85.2686 92.7276 85.1699C92.9672 84.965 93.1544 84.7055 93.2733 84.4132C93.3892 84.6378 93.5713 84.8212 93.7949 84.9386C94.0185 85.0559 94.2727 85.1014 94.523 85.0689C95.023 84.9934 95.4966 84.7955 95.9019 84.4929C96.2234 84.3041 96.5073 84.0574 96.7393 83.7651C96.8539 83.6179 96.9327 83.4459 96.9692 83.2628C97.0058 83.0797 96.9991 82.8906 96.9496 82.7105C96.8293 82.4344 96.6423 82.1926 96.4055 82.0069C95.8152 81.4606 95.2248 80.9143 94.6344 80.3679L94.4343 80.3079C94.3302 80.1969 94.2048 80.1081 94.0655 80.0469C93.9263 79.9857 93.7762 79.9533 93.6241 79.9517C93.4721 79.9501 93.3213 79.9793 93.1808 80.0375C93.0403 80.0957 92.913 80.1818 92.8066 80.2905C92.44 80.7016 92.4383 81.3158 92.4944 81.8642C92.5504 82.4126 92.6376 82.9969 92.3938 83.4912C92.2541 83.7745 92.0174 83.9988 91.8618 84.2737Z" fill="#E6E6E6"/>
<path d="M126.115 102.935C123.821 102.423 121.721 101.264 120.063 99.5952C118.406 97.926 117.259 95.8163 116.76 93.5154C116.543 92.4295 116.444 91.2431 115.723 90.4037C115.025 89.591 113.885 89.2976 112.814 89.2977C111.744 89.2978 110.689 89.5445 109.621 89.6113C107.753 89.728 105.774 89.2337 104.439 87.9207C103.806 87.2989 103.328 86.5093 102.589 86.0189C101.596 85.3598 100.28 85.3603 99.149 85.7337C97.8892 86.1497 96.8808 87.2879 95.5032 87.1313C94.0704 86.9683 92.41 86.461 91.8482 88.3509C91.6865 88.895 91.7416 89.4918 91.5368 90.0212C91.2211 90.8371 90.3832 91.297 89.7204 91.8669C88.3853 93.0149 87.6757 94.7589 87.4366 96.5051C87.1976 98.2513 87.3825 100.025 87.5677 101.777C87.6675 102.723 87.7989 103.74 88.4472 104.435C89.3507 105.402 90.8671 105.365 92.1854 105.256C93.7171 105.129 95.2488 105.003 96.7805 104.876C97.6062 104.808 98.5469 104.779 99.1347 105.363C99.4869 105.714 99.636 106.221 99.9457 106.61C100.224 106.94 100.606 107.167 101.029 107.252C101.452 107.338 101.891 107.277 102.276 107.08C101.965 107.636 101.796 108.26 101.783 108.897C101.771 109.534 101.915 110.164 102.204 110.732C102.492 111.299 102.916 111.787 103.437 112.151C103.959 112.516 104.562 112.746 105.194 112.821L105.312 112.896C104.331 114.578 103.314 116.467 103.72 118.372C104.069 120.005 105.419 121.315 105.64 122.97C105.843 124.489 105.052 126.043 105.402 127.534C105.756 129.045 107.279 130.098 108.824 130.211C110.369 130.323 111.887 129.637 113.084 128.651C114.281 127.666 115.206 126.397 116.118 125.142C116.681 124.368 117.258 123.561 117.452 122.623C117.657 121.624 117.419 120.518 117.904 119.621C118.463 118.587 119.79 118.199 120.459 117.234C121.327 115.983 120.816 114.28 121.008 112.77C121.482 109.032 126.223 106.702 126.115 102.935Z" fill="#E6E6E6"/>
<path d="M125.431 115.697C125.301 116.281 124.756 116.665 124.236 116.959C123.716 117.253 123.144 117.549 122.879 118.085C122.608 118.634 122.732 119.288 122.874 119.883C123.169 121.123 123.517 122.348 123.917 123.559C124.693 122.09 125.37 120.572 125.945 119.013C126.188 118.433 126.338 117.818 126.389 117.19C126.413 116.877 126.371 116.561 126.266 116.264C126.16 115.968 125.994 115.697 125.778 115.468L125.431 115.697Z" fill="#E6E6E6"/>
<path d="M157.337 109.196C156.685 108.442 156.034 107.689 155.382 106.935C154.937 106.42 154.429 105.87 153.753 105.784L153.476 105.962C154.04 107.309 154.605 108.656 155.17 110.004C155.37 110.619 155.722 111.174 156.193 111.616C156.699 112.014 157.519 112.091 157.941 111.604C158.077 111.422 158.162 111.207 158.189 110.981C158.216 110.755 158.183 110.526 158.094 110.317C157.91 109.901 157.654 109.521 157.337 109.196Z" fill="#E6E6E6"/>
<path d="M163.649 110.638C163.896 110.553 164.121 110.416 164.312 110.238C164.503 110.06 164.654 109.844 164.757 109.604C164.958 109.123 165.092 108.616 165.153 108.098C165.264 107.424 165.375 106.749 165.487 106.074L165.341 106.037C165.2 105.969 165.038 105.955 164.887 105.997C164.736 106.039 164.605 106.134 164.519 106.265C164.355 106.533 164.23 106.824 164.15 107.128C164.109 107.28 164.034 107.42 163.931 107.539C163.828 107.657 163.699 107.751 163.555 107.813C163.032 107.971 162.537 107.416 161.991 107.438C161.77 107.466 161.566 107.568 161.411 107.728C161.255 107.887 161.159 108.095 161.137 108.316C161.105 108.764 161.231 109.208 161.494 109.571C161.959 110.295 162.823 110.876 163.649 110.638Z" fill="#E6E6E6"/>
<path d="M167.251 111.917L168.753 107.956C168.144 108.398 167.678 109.008 167.412 109.712C167.145 110.416 167.089 111.182 167.251 111.917Z" fill="#E6E6E6"/>
<path d="M174.914 108.724L174.61 108.737C174.474 109.006 174.402 109.302 174.399 109.604C174.396 109.905 174.463 110.203 174.593 110.474C174.86 111.015 175.247 111.487 175.726 111.853C176.468 112.467 177.314 112.94 178.225 113.251C179.56 113.641 180.94 113.854 182.331 113.885C183.125 113.937 183.92 113.989 184.715 114.041C185.094 114.066 185.583 114.018 185.689 113.653C185.776 113.351 185.519 113.068 185.28 112.865C183.177 111.092 180.628 109.933 177.911 109.515C176.881 109.358 175.787 109.293 174.914 108.724Z" fill="#E6E6E6"/>
<path d="M183.397 119.237C182.826 118.682 182.254 118.126 181.683 117.571C181.127 117.031 180.294 116.459 179.657 116.9C179.291 117.153 179.178 117.647 178.867 117.967C178.678 118.137 178.45 118.256 178.203 118.315C177.956 118.374 177.699 118.37 177.453 118.304C176.965 118.167 176.504 117.948 176.088 117.656L174.67 116.774C174.181 116.47 173.691 116.166 173.202 115.862L172.097 116.937C172.145 116.408 171.441 116.064 170.953 116.273C170.722 116.403 170.522 116.584 170.37 116.802C170.217 117.021 170.116 117.27 170.073 117.533C169.992 118.058 169.851 118.572 169.651 119.065C169.09 120.14 167.729 120.459 166.531 120.639C165.333 120.819 163.976 121.073 163.335 122.103C162.801 122.96 162.961 124.061 163.139 125.056L163.814 128.82C163.846 129.276 164.029 129.708 164.333 130.048C164.926 130.573 165.845 130.254 166.569 129.934C168.082 129.205 169.706 128.734 171.374 128.539C173.056 128.35 174.749 128.785 176.134 129.761C176.992 130.415 177.647 131.322 178.557 131.903C179.183 132.281 179.888 132.51 180.616 132.574C181.344 132.638 182.078 132.534 182.76 132.271C184.128 131.725 185.26 130.714 185.957 129.415C186.576 128.27 186.887 126.982 186.858 125.68C186.83 124.378 186.464 123.106 185.796 121.988C185.113 120.975 184.308 120.051 183.397 119.237Z" fill="#E6E6E6"/>
<path d="M181.712 134.57C181.575 134.737 181.495 134.944 181.483 135.159C181.472 135.375 181.529 135.589 181.648 135.77C181.897 136.127 182.277 136.372 182.705 136.451C183.129 136.527 183.561 136.547 183.99 136.51L184.003 136.189C183.888 135.625 183.629 135.102 183.25 134.67C182.836 134.275 182.104 134.154 181.712 134.57Z" fill="#E6E6E6"/>
<path d="M196.432 134.914L196.227 134.839C195.739 135.575 195.251 136.311 194.764 137.048C194.501 137.444 194.227 137.92 194.387 138.368C194.577 138.898 195.277 139.053 195.821 138.913C196.237 138.8 196.611 138.571 196.901 138.252C197.191 137.933 197.384 137.538 197.458 137.114C197.518 136.687 197.453 136.252 197.271 135.861C197.088 135.471 196.797 135.141 196.432 134.914Z" fill="#E6E6E6"/>
<path d="M200.15 132.576L198.803 131.504C198.785 132.002 198.767 132.499 198.749 132.997L198.699 132.997C199.009 133.27 199.303 133.562 199.577 133.872C199.892 134.14 200.421 134.263 200.69 133.949C200.771 133.836 200.816 133.702 200.821 133.564C200.827 133.425 200.791 133.288 200.719 133.17C200.571 132.936 200.377 132.734 200.15 132.576Z" fill="#E6E6E6"/>
<path d="M175.823 85.9218C175.258 85.9041 174.633 85.8697 174.195 86.2279C174.051 86.3569 173.925 86.5044 173.819 86.6667L173.665 86.8832C173.434 87.1862 173.232 87.5107 173.063 87.8523C172.975 88.0124 172.922 88.1896 172.908 88.3719C172.894 88.5543 172.919 88.7376 172.981 88.9094C173.018 88.9915 173.071 89.0646 173.139 89.1236C173.207 89.1826 173.286 89.2261 173.372 89.2508C173.458 89.2756 173.549 89.2811 173.637 89.267C173.726 89.2528 173.81 89.2194 173.884 89.169C174.126 88.9449 174.07 88.5385 174.252 88.264C174.333 88.1607 174.436 88.0775 174.554 88.021C174.672 87.9645 174.801 87.9362 174.932 87.9384C175.193 87.9449 175.453 87.9744 175.708 88.0263C176.417 88.1235 177.138 88.0156 177.787 87.7154C178.436 87.4151 178.986 86.935 179.371 86.3318C179.757 85.7286 179.962 85.0275 179.962 84.3113C179.963 83.5951 179.759 82.8937 179.374 82.29L179.329 82.151C178.937 82.136 178.553 82.2589 178.243 82.4984C177.933 82.7378 177.717 83.0786 177.632 83.4614C177.505 84.1209 177.773 84.887 177.374 85.4266C177.038 85.8815 176.388 85.9395 175.823 85.9218Z" fill="#E6E6E6"/>
<path d="M180.881 78.9301L180.795 78.9226C180.29 79.0151 179.805 79.1962 179.362 79.4575C179.217 79.525 179.101 79.6428 179.036 79.7892C179.016 79.8669 179.017 79.9481 179.037 80.0256C179.057 80.1032 179.095 80.1745 179.15 80.2332C179.259 80.3494 179.388 80.4462 179.53 80.5197C179.741 80.6609 179.974 80.7655 180.22 80.8291C180.343 80.8596 180.472 80.8589 180.595 80.827C180.719 80.7952 180.832 80.7332 180.925 80.6466C181.012 80.5263 181.072 80.3883 181.101 80.2422C181.13 80.0961 181.126 79.9456 181.09 79.8011C181.05 79.5045 180.98 79.2127 180.881 78.9301Z" fill="#E6E6E6"/>
<path d="M172.172 86.0898C172.307 85.8731 172.403 85.6342 172.456 85.3841C172.509 85.19 172.561 84.9958 172.614 84.8017L172.051 84.4589C171.782 84.5992 171.534 84.7764 171.313 84.9854C171.204 85.0907 171.117 85.2175 171.059 85.358C171.001 85.4984 170.972 85.6494 170.975 85.8015C170.983 85.9534 171.042 86.0982 171.142 86.2124C171.243 86.3265 171.379 86.4033 171.528 86.4302C171.656 86.434 171.782 86.4047 171.895 86.3451C172.008 86.2854 172.103 86.1975 172.172 86.0898Z" fill="#E6E6E6"/>
<path d="M110.816 33.6222C110.593 33.7613 110.656 34.0974 110.746 34.3443C110.85 34.6277 110.954 34.9111 111.057 35.1945L111.203 34.6443C111.33 34.431 111.386 34.1825 111.363 33.9349C111.313 33.6931 111.025 33.4916 110.816 33.6222Z" fill="#E6E6E6"/>
<path d="M251.436 84.6711H157.234C154.963 84.6685 152.786 83.7638 151.181 82.1555C149.575 80.5472 148.672 78.3666 148.67 76.0921V8.57901C148.672 6.30451 149.576 4.1239 151.181 2.51559C152.786 0.907274 154.963 0.00258752 157.234 0H251.436C253.707 0.00258654 255.883 0.907274 257.489 2.51559C259.094 4.1239 259.997 6.30451 260 8.57901V76.0921C259.997 78.3666 259.094 80.5472 257.489 82.1555C255.883 83.7638 253.707 84.6685 251.436 84.6711Z" fill="#F9F9F9"/>
<path d="M251.436 84.6711H157.234C154.963 84.6685 152.786 83.7638 151.181 82.1555C149.575 80.5472 148.672 78.3666 148.67 76.0921V8.57901C148.672 6.30451 149.576 4.1239 151.181 2.51559C152.786 0.907274 154.963 0.00258752 157.234 0H251.436C253.707 0.00258654 255.883 0.907274 257.489 2.51559C259.094 4.1239 259.997 6.30451 260 8.57901V76.0921C259.997 78.3666 259.094 80.5472 257.489 82.1555C255.883 83.7638 253.707 84.6685 251.436 84.6711ZM157.234 0.746001C155.161 0.748329 153.173 1.57434 151.707 3.04281C150.241 4.51128 149.417 6.50228 149.415 8.57901V76.0921C149.417 78.1688 150.241 80.1598 151.707 81.6282C153.173 83.0967 155.161 83.9227 157.234 83.9251H251.436C253.509 83.9227 255.497 83.0967 256.963 81.6282C258.428 80.1598 259.253 78.1688 259.255 76.0921V8.57901C259.253 6.50228 258.428 4.51128 256.963 3.04281C255.497 1.57434 253.509 0.748329 251.436 0.746001H157.234Z" fill="white"/>
<path d="M182.864 10.2795H167.97C167.575 10.2795 167.196 10.1223 166.917 9.84254C166.638 9.56273 166.481 9.18324 166.481 8.78753C166.481 8.39183 166.638 8.01233 166.917 7.73253C167.196 7.45272 167.575 7.29553 167.97 7.29553H182.864C183.259 7.29553 183.638 7.45272 183.917 7.73253C184.196 8.01233 184.353 8.39183 184.353 8.78753C184.353 9.18324 184.196 9.56273 183.917 9.84254C183.638 10.1223 183.259 10.2795 182.864 10.2795Z" fill="#CCCCCC"/>
<path d="M215.257 43.8496H167.97C167.575 43.8496 167.196 43.6924 166.917 43.4126C166.638 43.1328 166.481 42.7533 166.481 42.3576C166.481 41.9619 166.638 41.5824 166.917 41.3026C167.196 41.0228 167.575 40.8656 167.97 40.8656H215.257C215.652 40.8656 216.031 41.0228 216.311 41.3026C216.59 41.5824 216.747 41.9619 216.747 42.3576C216.747 42.7533 216.59 43.1328 216.311 43.4126C216.031 43.6924 215.652 43.8496 215.257 43.8496Z" fill="#CCCCCC"/>
<path d="M176.346 34.4306C181.861 34.4306 186.332 29.9519 186.332 24.4271C186.332 18.9023 181.861 14.4236 176.346 14.4236C170.831 14.4236 166.36 18.9023 166.36 24.4271C166.36 29.9519 170.831 34.4306 176.346 34.4306Z" fill="#0055A4"/>
<path d="M168.715 72.3422H166.481V73.0882H168.715V72.3422Z" fill="#3F3D56"/>
<path d="M234.31 73.0882H229.624V72.3422H234.31V73.0882ZM224.939 73.0882H220.254V72.3422H224.939V73.0882ZM215.568 73.0882H210.883V72.3422H215.568V73.0882ZM206.198 73.0882H201.512V72.3422H206.198L206.198 73.0882ZM196.827 73.0882H192.142V72.3422H196.827V73.0882ZM187.456 73.0882H182.771V72.3422H187.456L187.456 73.0882ZM178.086 73.0882H173.4V72.3422H178.086V73.0882Z" fill="#3F3D56"/>
<path d="M241.229 72.3422H238.995V73.0882H241.229V72.3422Z" fill="#3F3D56"/>
<path d="M204.399 59.1426H202.538V71.8246H204.399V59.1426Z" fill="#339CFF"/>
<path d="M223.389 59.1426H221.527V71.8246H223.389V59.1426Z" fill="#339CFF"/>
<path d="M232.697 66.2296H230.836V71.8246H232.697V66.2296Z" fill="#339CFF"/>
<path d="M213.708 53.5476H211.846V71.8246H213.708V53.5476Z" fill="#339CFF"/>
<path d="M33.4946 84.5066C34.7285 84.5066 35.7287 83.5046 35.7287 82.2686C35.7287 81.0326 34.7285 80.0306 33.4946 80.0306C32.2608 80.0306 31.2606 81.0326 31.2606 82.2686C31.2606 83.5046 32.2608 84.5066 33.4946 84.5066Z" fill="#EB7B30"/>
<path d="M39.4521 73.6896C40.6859 73.6896 41.6861 72.6876 41.6861 71.4516C41.6861 70.2156 40.6859 69.2136 39.4521 69.2136C38.2183 69.2136 37.218 70.2156 37.218 71.4516C37.218 72.6876 38.2183 73.6896 39.4521 73.6896Z" fill="#2CA765"/>
<path d="M104.984 65.1106C106.218 65.1106 107.218 64.1086 107.218 62.8726C107.218 61.6366 106.218 60.6346 104.984 60.6346C103.75 60.6346 102.75 61.6366 102.75 62.8726C102.75 64.1086 103.75 65.1106 104.984 65.1106Z" fill="#DE0029"/>
<path d="M53.7032 222.855L57.0729 222.855L58.6758 209.835L53.7025 209.835L53.7032 222.855Z" fill="#FFB6B6"/>
<path d="M53.5846 226.377L63.9466 226.376V226.245C63.9466 225.173 63.5216 224.146 62.7653 223.388C62.0089 222.63 60.9831 222.205 59.9134 222.205L58.0204 220.766L54.489 222.205L53.5844 222.205L53.5846 226.377Z" fill="#2F2E41"/>
<path d="M79.0224 222.855L82.3921 222.855L83.995 209.835L79.0217 209.835L79.0224 222.855Z" fill="#FFB6B6"/>
<path d="M78.9038 226.377L89.2659 226.376V226.245C89.2658 225.173 88.8408 224.146 88.0845 223.388C87.3281 222.63 86.3023 222.205 85.2326 222.205L83.3396 220.766L79.8082 222.205L78.9036 222.205L78.9038 226.377Z" fill="#2F2E41"/>
<path d="M53.5722 116.938L59.5523 116.08C61.5748 119.468 62.2935 128.485 62.2935 128.485L68.1459 142.42C68.5335 142.684 68.8449 143.045 69.0488 143.467C69.2526 143.89 69.3418 144.359 69.3072 144.827C69.2726 145.295 69.1156 145.746 68.8519 146.134C68.5882 146.522 68.2271 146.833 67.805 147.037C67.3829 147.241 66.9146 147.329 66.4474 147.294C65.9802 147.259 65.5305 147.101 65.1435 146.837C64.7566 146.572 64.446 146.21 64.2432 145.787C64.0403 145.364 63.9523 144.895 63.988 144.427L54.3789 128.207L53.5722 116.938Z" fill="#FFB6B6"/>
<path d="M56.8134 100.306C55.8878 100.45 55.0051 100.796 54.2283 101.32C53.4514 101.845 52.7994 102.534 52.3187 103.339C51.8379 104.144 51.5403 105.046 51.4469 105.979C51.3534 106.913 51.4666 107.856 51.7782 108.741L53.0472 112.344C53.0472 112.344 51.4487 123.193 54.0831 126.256L62.1671 125.523C62.1671 125.523 60.6891 120.049 61.8238 117.401C62.5187 115.779 62.4801 110.177 61.7954 105.62C61.2726 102.14 60.2847 99.7679 56.8134 100.306Z" fill="#3F3D56"/>
<path d="M84.6916 132.997C84.6916 132.997 90.9227 139.084 89.5921 140.49C88.2614 141.896 85.2176 143.866 88.0427 144.187C90.8678 144.507 92.0398 145.203 89.5921 145.788C87.1444 146.372 87.5226 147.874 87.5226 147.874C87.5226 147.874 91.2076 165.448 88.415 177.011C88.415 177.011 86.8608 208.593 85.8856 211.053C84.9103 213.512 84.538 212.02 84.9103 213.512C85.2826 215.004 86.0273 212.393 85.2826 215.004C84.8763 216.368 84.5546 217.756 84.3193 219.16L77.0354 218.041C77.0354 218.041 75.8627 214.338 77.0354 213.366C78.2082 212.393 79.2601 212.993 77.9895 210.828C76.7188 208.663 76.3464 211.647 76.7188 208.663C77.0911 205.679 75.5367 189.541 77.9895 181.011L73.4568 157.079L66.2607 181.86C66.2607 181.86 62.4437 212.125 61.2036 213.192C59.9634 214.258 58.1017 212.393 59.9634 214.258C61.8251 216.123 61.7926 215.803 61.8251 216.123C62.1719 219.545 51.5119 215.803 51.5119 215.803C51.5711 214.933 51.5711 214.061 51.5119 213.192C51.3995 212.393 52.7412 212.138 51.5119 211.333C50.2825 210.528 52.1117 211.327 52.1117 211.327C52.1117 211.327 54.8607 188.999 56.9522 182.233L59.3724 149.283C59.3724 149.283 59.526 149.94 59.3724 148.343C59.2187 146.745 58.1017 147.864 59.2187 146.745C60.3358 145.626 61.0804 145.056 60.3358 144.222C59.5911 143.388 57.5368 141.701 58.7501 140.68C59.9634 139.658 62.3511 132.997 62.3511 132.997L85.6225 133.183" fill="#2F2E41"/>
<path d="M75.9419 96.0048L71.7459 91.2717L65.1156 92.0097L60.8707 97.9609C58.6112 98.4812 56.6367 99.8493 55.3534 101.784C54.0701 103.718 53.5757 106.071 53.9719 108.36C55.6191 117.862 61.2173 127.078 59.3688 131.766C56.5628 138.883 56.3916 141.786 63.1083 140.788C69.825 139.79 92.3273 137.49 87.9647 133.12C83.602 128.749 82.6437 121.446 82.6437 121.446L82.4688 104.738C82.6543 103.73 82.6296 102.695 82.3962 101.697C82.1629 100.7 81.7259 99.761 81.1129 98.9407C80.4998 98.1204 79.7239 97.4361 78.834 96.9308C77.9441 96.4255 76.9594 96.1103 75.9419 96.0048Z" fill="#3F3D56"/>
<path d="M74.7957 114.327L80.7757 113.469C82.7982 116.857 83.5169 125.874 83.5169 125.874L89.3694 139.809C89.7569 140.073 90.0683 140.434 90.2722 140.856C90.4761 141.279 90.5652 141.748 90.5306 142.216C90.4961 142.684 90.339 143.135 90.0753 143.523C89.8116 143.911 89.4505 144.222 89.0284 144.426C88.6063 144.63 88.1381 144.719 87.6709 144.683C87.2037 144.648 86.7539 144.49 86.367 144.226C85.98 143.961 85.6695 143.599 85.4666 143.176C85.2638 142.753 85.1758 142.284 85.2114 141.816L75.6024 125.596L74.7957 114.327Z" fill="#FFB6B6"/>
<path d="M78.0368 97.6955C77.1112 97.8391 76.2286 98.1852 75.4518 98.7094C74.6749 99.2336 74.0229 99.9228 73.5422 100.728C73.0614 101.533 72.7638 102.435 72.6703 103.368C72.5769 104.302 72.69 105.245 73.0017 106.13L74.2707 109.733C74.2707 109.733 72.6721 120.582 75.3066 123.645L83.3906 122.912C83.3906 122.912 81.9126 117.438 83.0473 114.79C83.7422 113.168 83.7036 107.566 83.0189 103.009C82.496 99.5292 81.5081 97.1569 78.0368 97.6955Z" fill="#3F3D56"/>
<path d="M66.6075 90.8641C71.0335 90.8641 74.6215 87.2698 74.6215 82.836C74.6215 78.4022 71.0335 74.8078 66.6075 74.8078C62.1815 74.8078 58.5935 78.4022 58.5935 82.836C58.5935 87.2698 62.1815 90.8641 66.6075 90.8641Z" fill="#FFB6B6"/>
<path d="M65.1336 90.6948C67.3656 90.1347 67.4416 89.4957 69.6736 88.9355C70.3842 88.7572 71.2077 88.4762 71.4183 87.7732C71.4683 87.5161 71.4581 87.2509 71.3884 86.9984C71.3188 86.746 71.1916 86.5131 71.0169 86.3182C70.6653 85.9324 70.3358 85.5268 70.0302 85.1034C69.8278 84.7633 69.7111 84.379 69.6902 83.9836C69.6693 83.5882 69.7448 83.1936 69.9102 82.834C70.0756 82.4744 70.326 82.1606 70.6396 81.9196C70.9532 81.6787 71.3207 81.5179 71.7103 81.4511C72.4007 81.3327 73.1127 81.516 73.8075 81.4273C74.7605 81.3057 76.1622 77.7637 75.5513 77.021C74.9566 76.2981 73.9805 75.8667 73.6526 74.9894C73.4381 74.4156 73.5554 73.774 73.4598 73.1689C73.3182 72.2716 71.5056 74.756 71.7469 73.8803C72.3387 71.7321 62.3252 71.3938 61.2827 74.1497C60.8931 75.1798 59.8384 75.3434 59.0271 76.0869C58.4953 76.5742 57.2236 78.1335 57.0392 78.9739C56.8865 79.8237 56.9159 80.6964 57.1254 81.5339C57.957 85.4601 59.3316 88.9398 62.9903 90.5754" fill="#2F2E41"/>
<path d="M1.93685 226.885L147.048 227C147.106 227 147.164 226.989 147.218 226.967C147.272 226.944 147.321 226.912 147.362 226.87C147.404 226.829 147.436 226.78 147.459 226.726C147.481 226.672 147.493 226.614 147.493 226.556C147.493 226.497 147.481 226.44 147.459 226.386C147.436 226.332 147.404 226.283 147.362 226.241C147.321 226.2 147.272 226.167 147.218 226.145C147.164 226.123 147.106 226.112 147.048 226.112L1.93685 225.997C1.87852 225.997 1.82073 226.008 1.76679 226.031C1.71286 226.053 1.66383 226.086 1.62252 226.127C1.58122 226.168 1.54845 226.217 1.52609 226.271C1.50373 226.325 1.49222 226.383 1.49222 226.441C1.49222 226.5 1.50373 226.558 1.52609 226.612C1.54845 226.665 1.58122 226.714 1.62252 226.756C1.66383 226.797 1.71286 226.83 1.76679 226.852C1.82073 226.874 1.87852 226.886 1.93685 226.885Z" fill="#CACACA"/>
</g>
<defs>
<clipPath id="clip0_109_1092">
<rect width="260" height="227" fill="white"/>
</clipPath>
</defs>
</svg>
